<?xml version="1.0" encoding="iso-8859-1"?>
<!-- Generator: Adobe Illustrator 16.0.0, SVG Export Plug-In . SVG Version: 6.00 Build 0)  -->
<!DOCTYPE svg PUBLIC "-//W3C//DTD SVG 1.1//EN" "http://www.w3.org/Graphics/SVG/1.1/DTD/svg11.dtd">
<svg version="1.1" xmlns="http://www.w3.org/2000/svg" xmlns:xlink="http://www.w3.org/1999/xlink" x="0px" y="0px"
	 width="461.771px" height="394.741px" viewBox="0 0 461.771 394.741" style="enable-background:new 0 0 461.771 394.741;"
	 xml:space="preserve">
<g id="Layer_1">
</g>
<g id="Layer_2">
	<g>
		<path style="fill:#FFFFFF;" d="M393.346,269.474c0-0.334,0.109-0.593,0.339-0.792c0.22-0.21,0.509-0.31,0.837-0.31h26.998
			c0.299,0,0.563,0.1,0.803,0.279c0.233,0.18,0.363,0.459,0.398,0.822v6.233c0,0.294-0.105,0.588-0.314,0.857
			c-0.209,0.274-0.498,0.419-0.887,0.419h-8.655v27.466c0,0.299-0.11,0.578-0.329,0.817c-0.214,0.244-0.498,0.368-0.848,0.368
			h-7.359c-0.279,0-0.548-0.119-0.797-0.339c-0.25-0.229-0.379-0.508-0.379-0.847v-27.466h-8.631c-0.328,0-0.617-0.115-0.837-0.329
			c-0.229-0.22-0.339-0.528-0.339-0.947V269.474z"/>
		<path style="fill:#FFFFFF;" d="M439.668,305.102c-0.189-0.299-0.35-0.612-0.494-0.927c-0.145-0.313-0.279-0.647-0.413-0.981
			l-12.866-33.689c0-0.085-0.02-0.16-0.04-0.225c-0.02-0.069-0.04-0.135-0.04-0.204c0-0.464,0.314-0.703,0.932-0.703h8.078
			c0.638,0,1.071,0.319,1.306,0.952l7.648,22.837c0.688-1.913,1.341-3.807,1.969-5.71c0.628-1.894,1.251-3.798,1.858-5.711
			c0.613-1.903,1.23-3.807,1.858-5.705c0.628-1.899,1.276-3.803,1.969-5.711c0.233-0.633,0.692-0.952,1.38-0.952h7.903
			c0.389,0,0.657,0.07,0.817,0.22c0.154,0.135,0.238,0.324,0.238,0.558c0,0.135-0.01,0.229-0.029,0.279v0.075l-12.945,33.689
			c-0.085,0.239-0.18,0.498-0.305,0.777c-0.114,0.289-0.244,0.548-0.398,0.798c-0.145,0.238-0.324,0.438-0.523,0.607
			c-0.204,0.17-0.429,0.259-0.678,0.259h-6.198C440.176,305.635,439.837,305.457,439.668,305.102"/>
		<g style="enable-background:new    ;">
			<path style="fill:#FFFFFF;" d="M394.761,197.38c0,31.388-7.34,61.057-20.38,87.416v-2.366v-20.784
				c0-4.629-0.648-8.984-1.974-13.065c-1.285-4.081-3.209-7.664-5.721-10.703c-2.541-3.06-5.601-5.477-9.208-7.235
				c-3.607-1.774-7.693-2.671-12.298-2.671c-2.362,0-4.505,0.279-6.368,0.822c-1.869,0.553-3.563,1.245-5.028,2.117
				c-1.47,0.867-2.74,1.844-3.837,2.936c-1.091,1.121-2.018,2.247-2.785,3.363v-26.41c0-0.617-0.13-1.266-0.374-1.943
				c-0.274-0.697-0.673-1.216-1.19-1.569c-1.127-0.647-2.143-0.972-3.09-0.972h-13.644c-1.744,0-2.989,0.424-3.757,1.271
				c-0.768,0.848-1.146,1.948-1.146,3.309v22.429v0.324v17.974v0.418v49.212c0,1.415,0.379,2.531,1.146,3.379
				c0.768,0.856,2.013,1.275,3.757,1.275h13.644c0.623,0,1.141-0.07,1.614-0.175c0.448-0.124,0.947-0.349,1.476-0.673
				c0.518-0.373,0.916-0.896,1.19-1.564c0.244-0.702,0.374-1.375,0.374-2.063v-39.909c0.119-1.809,0.568-3.453,1.32-4.947
				c0.742-1.495,1.664-2.761,2.761-3.837c1.116-1.066,2.362-1.894,3.752-2.487c1.4-0.572,2.82-0.872,4.266-0.872
				c1.685,0,3.304,0.329,4.798,0.947c1.521,0.623,2.836,1.49,3.962,2.591c1.142,1.116,2.043,2.412,2.69,3.902
				c0.668,1.494,0.992,3.114,0.992,4.828v39.953c0,1.694,0.324,2.836,0.972,3.438c0.647,0.568,1.844,0.867,3.577,0.867h3.838h2.143
				c-35.27,53.517-95.952,88.836-164.85,88.836C88.36,394.741,0,306.378,0,197.38C0,88.366,88.36,0,197.383,0
				c65.488,0,123.53,31.886,159.423,80.993h-1.171c-1.515,0-2.666,0.376-3.384,1.071c-0.723,0.698-1.071,1.894-1.071,3.581v11.802
				c0,3.334,1.465,5,4.455,5h14.042c0.493,0,0.768-0.044,0.768-0.044C385.951,130.574,394.761,162.933,394.761,197.38
				 M374.381,183.645V116.24c0-0.725-0.175-1.373-0.528-1.938c-0.319-0.55-0.743-1.046-1.216-1.47
				c-0.498-0.423-1.021-0.75-1.564-0.974c-0.578-0.225-1.102-0.321-1.595-0.321h-13.843c-1.515,0-2.666,0.448-3.384,1.393
				c-0.723,0.924-1.071,2.016-1.071,3.311v67.405c0,3.107,1.465,4.654,4.455,4.654h13.843c1.595,0,2.785-0.398,3.632-1.174
				C373.957,186.329,374.381,185.187,374.381,183.645 M339.58,117.511c0.797-1.647,0.966-3.063,0.448-4.231
				c-0.499-1.173-1.694-1.744-3.578-1.744h-14.022c-1.046,0-1.963,0.271-2.74,0.847c-0.787,0.546-1.336,1.368-1.659,2.409
				c-0.703,2.143-11.476,39.731-11.745,40.447l-9.442-25.411c-0.544-1.29-1.116-2.162-1.789-2.613
				c-0.678-0.448-1.62-0.673-2.811-0.673h-9.881c-1.222,0-2.144,0.225-2.815,0.673c-0.678,0.451-1.241,1.323-1.794,2.613
				l-9.428,25.411c-0.279-0.716-11.053-38.304-11.75-40.447c-0.329-1.041-0.877-1.863-1.669-2.409
				c-0.772-0.575-1.689-0.847-2.736-0.847h-14.017c-1.894,0-3.085,0.57-3.583,1.744c-0.523,1.168-0.369,2.584,0.448,4.231
				l23.37,68.196c0.324,0.795,0.822,1.443,1.471,1.892c0.672,0.476,1.818,0.7,3.433,0.7h8.661c1.195,0,2.117-0.25,2.715-0.75
				c0.594-0.521,1.121-1.124,1.564-1.842l11.053-27.575l11.077,27.575c0.448,0.718,0.972,1.32,1.564,1.842
				c0.608,0.5,1.524,0.75,2.721,0.75h8.661c1.619,0,2.76-0.225,3.438-0.7c0.648-0.448,1.137-1.097,1.465-1.892L339.58,117.511z
				 M292.988,295.879c0-0.25-0.079-0.578-0.278-0.978c-0.17-0.398-0.369-0.767-0.568-1.096l-6.772-10.205
				c-0.592-0.947-1.17-1.545-1.738-1.819c-0.578-0.269-1.196-0.418-1.874-0.418c-0.294,0-0.692,0.055-1.195,0.149
				c-0.493,0.104-1.017,0.344-1.59,0.742c-1.819,1.246-3.732,2.292-5.751,3.09c-2.018,0.822-4.15,1.216-6.473,1.216
				c-2.541,0-4.873-0.488-6.996-1.495c-2.133-0.967-3.977-2.313-5.471-4.001c-1.516-1.694-2.691-3.713-3.528-6.024
				c-0.847-2.313-1.275-4.804-1.275-7.465c0-2.591,0.429-5.033,1.275-7.37c0.837-2.347,2.013-4.404,3.528-6.174
				c1.494-1.764,3.338-3.159,5.471-4.205c2.123-1.021,4.455-1.545,6.996-1.545c2.322,0,4.485,0.379,6.498,1.121
				c2.043,0.752,3.961,1.719,5.726,2.885c0.647,0.429,1.221,0.748,1.749,0.922c0.518,0.199,0.967,0.274,1.336,0.274
				c1.594,0,2.989-0.967,4.11-2.96l5.372-9.108c0.473-0.777,0.723-1.521,0.723-2.243c0-1.046-0.25-1.943-0.768-2.641
				c-0.519-0.692-1.246-1.315-2.118-1.839l0.175,0.175c-3.26-2.292-6.768-4.026-10.484-5.202c-3.728-1.166-7.783-1.744-12.193-1.744
				c-3.633,0-7.121,0.474-10.475,1.396c-3.363,0.921-6.492,2.237-9.412,3.931c-2.886,1.694-5.552,3.732-7.963,6.124
				c-2.441,2.412-4.48,5.053-6.174,7.993c-1.694,2.91-3.01,6.094-3.959,9.503c-0.944,3.438-1.413,6.996-1.413,10.708
				c0,3.707,0.469,7.266,1.413,10.674c0.949,3.418,2.265,6.577,3.959,9.507c1.693,2.94,3.732,5.626,6.174,8.018
				c2.411,2.388,5.077,4.455,7.963,6.174c2.92,1.715,6.049,3.04,9.412,3.957c3.354,0.922,6.842,1.391,10.475,1.391
				c4.41,0,8.565-0.693,12.497-2.088c3.932-1.396,7.539-3.234,10.853-5.521c0.673-0.448,1.316-0.977,1.895-1.55
				C292.71,297.543,292.988,296.795,292.988,295.879 M229.217,164.68c0-4.012-0.623-7.395-1.842-10.156
				c-1.245-2.79-2.959-5.177-5.18-7.172c-2.215-1.991-4.826-3.681-7.863-5.053c-3.01-1.373-6.348-2.637-9.955-3.808
				c-0.975-0.274-2.041-0.546-3.189-0.747c-1.141-0.223-2.24-0.523-3.259-0.895c-1.021-0.352-1.889-0.822-2.614-1.423
				c-0.692-0.573-1.091-1.388-1.168-2.434c-0.074-1.425,0.476-2.469,1.645-3.139c1.168-0.693,2.732-1.047,4.704-1.047
				c1.567,0,3.261,0.277,5.077,0.827c1.816,0.541,2.908,1.188,4.557,2.138c1.643,0.92,2.489,1.592,2.908,1.714
				c0.448,0.129,0.924,0.129,1.397,0.027c0.496-0.097,0.964-0.349,1.465-0.745c0,0,5.152-7.644,6.847-9.911
				c0.745-0.969,1.368-1.565,1.368-2.265c-0.025-0.698-0.302-1.54-1.071-2.26c-2.838-2.693-7.966-4.903-9.807-5.75
				c-1.99-0.899-4.108-1.572-6.323-1.995c-2.24-0.424-4.603-0.623-7.144-0.623c-4.178,0-7.985,0.525-11.424,1.597
				c-3.436,1.072-6.367,2.589-8.832,4.527c-2.439,1.968-4.357,4.305-5.681,7.046c-1.315,2.735-1.99,5.775-1.99,9.134
				c0,2.863,0.354,5.576,1.099,8.164c0.72,2.566,1.99,4.977,3.832,7.221c1.841,2.24,4.332,4.256,7.469,6.072
				c3.135,1.816,7.119,3.355,11.973,4.654c1.515,0.473,2.912,0.896,4.125,1.27c1.227,0.377,2.272,0.771,3.115,1.244
				c0.847,0.443,1.494,1.021,1.943,1.693c0.443,0.648,0.667,1.567,0.667,2.684c0,1.246-0.396,2.221-1.193,2.891
				c-0.77,0.697-1.714,1.198-2.81,1.494c-1.072,0.299-2.216,0.474-3.409,0.551c-1.195,0.045-2.17,0.067-2.939,0.067
				c-0.321,0-0.92-0.092-1.816-0.291c-0.872-0.2-1.913-0.526-3.087-0.997c-1.144-0.448-2.362-1.071-3.633-1.821
				c-1.271-0.745-2.464-1.669-3.538-2.735c-1.168-1.146-2.138-1.816-2.888-2.065c-0.744-0.225-1.592,0.048-2.561,0.847l-7.791,7.786
				c-0.501,0.374-0.843,0.822-1.066,1.323c-0.225,0.493-0.352,1.044-0.352,1.666c-0.027,0.599,0.074,1.196,0.299,1.84
				c0.225,0.622,0.549,1.223,0.997,1.769c1.694,2.22,3.607,4.108,5.795,5.65c2.17,1.569,4.479,2.835,6.894,3.81
				c2.42,0.996,4.903,1.717,7.497,2.165c2.587,0.424,5.128,0.647,7.611,0.647c4.383,0,8.491-0.545,12.298-1.693
				c3.813-1.119,7.123-2.761,9.885-4.879c2.785-2.143,4.98-4.775,6.572-7.94C228.422,172.216,229.217,168.659,229.217,164.68
				 M221.451,247.758v-11.665c0-1.55-0.399-2.69-1.219-3.468c-0.797-0.748-1.844-1.146-3.14-1.146h-11.598l0.053-19.04
				c0-1.39-0.252-2.536-0.748-3.408c-0.522-0.872-1.52-1.296-2.989-1.296h-0.521c-0.172,0-0.371,0.025-0.57,0.05l-13.74,4.779
				c-1.522,0.578-2.688,1.171-3.535,1.794c-0.822,0.622-1.216,1.544-1.216,2.81l-0.077,14.312h-5.923
				c-3.114,0-4.654,1.545-4.654,4.614v11.665c0,3.264,1.54,4.879,4.654,4.879h5.923l0.077,48.613c0,3.109,1.542,4.654,4.653,4.654
				h13.658c1.572,0,2.793-0.398,3.69-1.196c0.867-0.767,1.318-1.943,1.318-3.458l-0.028-21.033l-0.024-27.58h11.598
				c1.296,0,2.343-0.399,3.14-1.166C221.052,250.673,221.451,249.453,221.451,247.758"/>
			<path style="fill:#FFFFFF;" d="M374.381,284.796c-0.398,0.822-0.798,1.62-1.221,2.442
				C373.533,286.491,373.902,285.694,374.381,284.796"/>
		</g>
	</g>
</g>
</svg>
